<svg xmlns="http://www.w3.org/2000/svg" viewBox="0 0 100 100" width="100%" height="100%">
    <rect width="100" height="100" rx="20" fill="#1e1e2e"/>
    
    <rect x="5" y="5" width="90" height="90" rx="15" fill="none" stroke="#89b4fa" stroke-width="2" stroke-opacity="0.3"/>

    <g transform="translate(0, -3)">
        <path d="M35 25h22l13 13v27H35z" fill="#313244" stroke="#cdd6f4" stroke-width="2" stroke-linejoin="round"/>
        <path d="M57 25v13h13" fill="none" stroke="#cdd6f4" stroke-width="2" stroke-linecap="round" stroke-linejoin="round"/>
        <line x1="42" y1="45" x2="63" y2="45" stroke="#a6adc8" stroke-width="2" stroke-linecap="round"/>
        <line x1="42" y1="53" x2="55" y2="53" stroke="#a6adc8" stroke-width="2" stroke-linecap="round"/>
    </g>

    <path d="M20 42h16l5-6h39v39H20z" fill="#45475a" opacity="0.7"/>
    
    <path d="M20 46h18l5-6h37v35H20z" fill="#89b4fa"/>

    <g transform="translate(-5, 12)">
        <path d="M35 25h15l10 10v20H35z" fill="#fafafa" stroke="#1e1e2e" stroke-width="2" stroke-linejoin="round"/>
        <path d="M50 25v10h10" fill="none" stroke="#1e1e2e" stroke-width="2" stroke-linejoin="round"/>
        <circle cx="42" cy="41" r="1.5" fill="#a6e3a1"/>
        <line x1="47" y1="41" x2="55" y2="41" stroke="#313244" stroke-width="1.5" stroke-linecap="round"/>
        <circle cx="42" cy="48" r="1.5" fill="#a6e3a1"/>
        <line x1="47" y1="48" x2="53" y2="48" stroke="#313244" stroke-width="1.5" stroke-linecap="round"/>
    </g>

    <path d="M72 25a1 1 0 0 1 1.6.8l2 6a1 1 0 0 1-1.5 1.2l-5-3a1 1 0 0 1-.1-1.5z" fill="#f38ba8"/>
    <path d="M73 20c0 5-2 10-6 12" fill="none" stroke="#f38ba8" stroke-width="2" stroke-linecap="round" stroke-dasharray="2 2"/>
</svg>
